<?xml version="1.0" encoding="UTF-8" standalone="no" ?>
<!DOCTYPE svg PUBLIC "-//W3C//DTD SVG 1.1//EN" "http://www.w3.org/Graphics/SVG/1.1/DTD/svg11.dtd">
<svg xmlns="http://www.w3.org/2000/svg" xmlns:xlink="http://www.w3.org/1999/xlink" version="1.1" width="1519" height="602" viewBox="0 0 1519 602" xml:space="preserve">
<desc>Created with Fabric.js 3.6.3</desc>
<defs>
</defs>
<g transform="matrix(1 0 0 1 759.88 301.43)"  >
<path style="stroke: none; stroke-width: 1; stroke-dasharray: none; stroke-linecap: butt; stroke-dashoffset: 0; stroke-linejoin: miter; stroke-miterlimit: 4; fill: rgb(0,0,0); fill-rule: nonzero; opacity: 1;"  transform=" translate(-990.28, -500.1)" d="M 861.19 484.38 c -8.37 -20.16 -16 -39.86 -24.74 -59.08 c -4.94 -10.89 -1.91 -20 4.15 -28.46 c 8.32 -11.58 20.27 -16.74 34.57 -18.19 c 19.69 -2 35.46 5.57 50.65 16.85 c 23.12 17.17 46.09 34.55 69.77 51 c 5.94 4.11 11.32 5.19 18.41 2.11 c 46.4 -20.2 92.79 -40.4 138.81 -61.44 c 4.81 -2.2 4.7 -3.06 -0.68 -6.67 c -19 -12.71 -38.62 -24.25 -58 -36.2 c -23.69 -14.56 -47.82 -28.4 -70.71 -44.23 c -6.77 -4.68 -12.08 -10.36 -14.32 -18.55 c -2.49 -9.11 0 -17.54 7.8 -23 c 23 -15.95 47.84 -25.48 76.62 -24 c 18.7 1 36.45 5.3 54.15 10.62 q 48.49 14.56 97 29.05 c 29.77 9 59.55 17.92 89.26 27.08 a 16.48 16.48 0 0 0 12.43 -0.73 q 79.67 -35.28 159.46 -70.29 c 20.42 -8.92 40.61 -18.49 62.28 -24.2 c 30.76 -8.11 61.77 -8.84 93 -3.34 c 24.74 4.34 47.21 13.61 66.63 29.79 a 87.94 87.94 0 0 1 16.49 18 c 7.34 10.74 7.18 21.23 0 32.1 c -7.62 11.57 -18.27 19.76 -29.45 27.34 c -36.47 24.72 -75.6 44.78 -114.72 64.81 c -36.31 18.6 -73.2 36 -110 53.56 a 11.82 11.82 0 0 0 -6.09 6.1 c -42 90.82 -83.24 182 -126.37 272.24 c -7.75 16.22 -15.36 32.5 -25.94 47.21 c -18.64 25.91 -45.16 39.09 -75 46.79 c -8 2.05 -18.24 -4.49 -22 -13.15 a 34.79 34.79 0 0 1 -2.48 -20 c 5.7 -33.27 11.23 -66.57 17.31 -99.77 c 8.21 -44.82 16.86 -89.56 25.32 -134.33 c 1 -5.28 0.42 -5.82 -4.92 -4.12 c -11.92 3.79 -23.24 9.08 -34.73 13.93 c -44.47 18.76 -89.18 36.83 -135.35 51.1 c -45 13.91 -90.87 21.69 -138.17 19.09 a 68.39 68.39 0 0 1 -31.71 -9.58 c -4.07 -2.44 -5.29 -1.51 -7 2.4 c -4.22 9.39 -8.92 18.58 -13.58 27.77 a 15.09 15.09 0 0 0 -1.59 9.55 a 88 88 0 0 1 -7.19 50.69 c -8.83 19.43 -25.28 30.47 -43.88 38.75 c -33.53 14.93 -68 15.59 -103 5.8 c -2.91 -0.81 -5.12 -0.77 -7.82 1 c -43.9 29.4 -89.83 31.85 -137.33 9.65 c -3.65 -1.71 -5.61 -1.38 -8.59 1.09 c -50.76 42.17 -120.06 43.71 -175.09 3.91 c -2.83 -2 -4.73 -2.14 -7.88 -0.58 c -38.36 19.06 -77.8 23.37 -118.18 7 c -47.53 -19.21 -74.14 -66.08 -66.63 -116.84 c 7.25 -49 29.54 -89.3 70.49 -118.27 a 159.77 159.77 0 0 1 53.81 -24.25 c 3.62 -0.92 5.24 -2.76 6.71 -5.75 c 18.79 -38.29 46.77 -67.47 86.25 -84.35 c 55.55 -23.77 115.4 -11.53 159.15 31.88 c 3.19 3.17 5.65 4 10.25 2.63 q 83.68 -25.06 143.47 38.9 c 1.79 1.91 3 2.72 5.83 1.36 c 29.81 -14.6 60.05 -15.68 90.64 -2.41 A 17.12 17.12 0 0 0 861.19 484.38 Z" stroke-linecap="round" />
</g>
<g transform="matrix(1 0 0 1 349.82 392.66)"  >
<path style="stroke: none; stroke-width: 1; stroke-dasharray: none; stroke-linecap: butt; stroke-dashoffset: 0; stroke-linejoin: miter; stroke-miterlimit: 4; fill: rgb(189,189,189); fill-rule: nonzero; opacity: 1;"  transform=" translate(-580.22, -591.33)" d="M 798 723.77 c -16.6 -0.61 -32.87 -3 -48.38 -9.25 c -3.52 -1.42 -5.88 -0.75 -8.72 1.7 a 104.94 104.94 0 0 1 -50.79 24.36 c -30.27 5.36 -58.58 -0.72 -84.38 -17.54 c -3.64 -2.37 -5.59 -3.08 -9.13 0.76 c -16.73 18.11 -37.3 30.31 -61.45 35.25 c -36.89 7.55 -70.12 -1.79 -100.09 -23.94 c -1.34 -1 -2.6 -2.08 -4 -3 c -3 -2.09 -5.09 -6.66 -8.4 -6.47 s -6.06 3.72 -9.23 5.51 a 132.85 132.85 0 0 1 -48.83 16.58 c -28 3.62 -53.8 -1.64 -76.94 -17.74 c -17.56 -12.22 -28.74 -29.07 -32.77 -50.33 c -6.11 -32.22 2.66 -61.56 17.93 -89.43 c 20.26 -37 52.19 -58.88 92.53 -68.46 c 8.73 -2.07 12.37 -5.82 15.89 -13.45 c 17.49 -37.84 44.75 -66 84.72 -80 c 41.57 -14.62 79.72 -6.81 114.55 19.33 a 135.4 135.4 0 0 1 24.51 24.1 c 1.72 2.16 3 2 5.44 0.85 c 17.36 -8.44 35.72 -13.14 55.07 -12.16 c 31.79 1.6 58.55 14.36 79.75 38.16 c 4.48 5 7.34 11.42 12.2 16.28 c 1.6 1.61 2.28 2.18 4.69 0.51 c 11.59 -8 23.7 -15.29 37.89 -17.76 c 26.56 -4.63 49.95 2.31 70.84 19.25 c 9.32 7.56 13 18.17 17.83 28.3 c 5.89 12.43 11.51 25 17.6 37.32 c 1.42 2.87 1.65 4.93 0.22 7.79 c -6.73 13.43 -13.13 27 -19.89 40.45 c -1.93 3.84 -1.81 7.38 -1.17 11.48 c 3.32 21.18 1.43 41.36 -15.27 57 c -11.44 10.67 -25.79 16.6 -40.8 20.51 A 119.87 119.87 0 0 1 798 723.77 Z" stroke-linecap="round" />
</g>
<g transform="matrix(1 0 0 1 1062.04 296.28)"  >
<path style="stroke: none; stroke-width: 1; stroke-dasharray: none; stroke-linecap: butt; stroke-dashoffset: 0; stroke-linejoin: miter; stroke-miterlimit: 4; fill: rgb(236,32,36); fill-rule: nonzero; opacity: 1;"  transform=" translate(-1292.44, -494.94)" d="M 883.51 413.92 c 5 0.66 11.09 1.93 16.68 5.88 q 40.78 28.83 81.93 57.13 c 6.56 4.5 13.09 9.76 22 9.22 a 54 54 0 0 0 18.81 -4.48 l 235.29 -104.25 c 97.77 -43.32 195.43 -86.88 293.4 -129.73 c 15 -6.58 30.79 -12.12 47.8 -13.07 c 23.81 -1.33 47.48 -3.2 70.51 5.45 c 14.16 5.33 27.32 12.27 38.71 22.3 c 4.49 3.95 4.22 5.09 -0.63 8.62 c -45.85 33.35 -96.56 58.14 -147 83.4 c -25.88 12.95 -52 25.4 -78 38.05 c -6.59 3.19 -13.17 6.4 -19.85 9.4 a 10.86 10.86 0 0 0 -5.67 5.85 q -36.48 79.07 -73.16 158 c -23.07 49.61 -46.07 99.26 -69.54 148.68 a 93.91 93.91 0 0 1 -33.18 38.51 c -0.28 0.18 -0.53 0.41 -0.82 0.57 c -2.92 1.56 -6.18 4.16 -9.23 2.35 c -3.46 -2.05 -0.85 -5.83 -0.33 -8.69 c 6.1 -33.33 12.4 -66.62 18.56 -99.93 q 8.85 -47.78 17.53 -95.57 c 4.92 -26.78 9.76 -53.59 14.86 -80.34 c 0.93 -4.87 -0.55 -4.54 -4 -3 c -25.72 11.32 -51.44 22.65 -77.24 33.77 c -48.72 21 -97.58 41.6 -148.46 57 c -22.76 6.87 -45.75 12.84 -69.28 16.47 c -18.92 2.92 -37.9 5.12 -57.09 2.69 a 95.26 95.26 0 0 1 -14.58 -3.2 c -6.94 -2 -11.68 -6.28 -15 -12.87 c -18.91 -38 -36 -76.74 -52.64 -115.75 c -3.38 -7.95 -6.64 -16 -9.61 -24.07 c -2.52 -6.88 -1.49 -8.12 5.82 -8.37 C 880.69 413.9 881.35 413.92 883.51 413.92 Z" stroke-linecap="round" />
</g>
<g transform="matrix(1 0 0 1 941.59 119.58)"  >
<path style="stroke: none; stroke-width: 1; stroke-dasharray: none; stroke-linecap: butt; stroke-dashoffset: 0; stroke-linejoin: miter; stroke-miterlimit: 4; fill: rgb(171,30,35); fill-rule: nonzero; opacity: 1;"  transform=" translate(-1172, -318.24)" d="M 1090.18 268.78 c 16.79 0.33 32.81 4.58 48.74 9.49 c 35.6 11 71.27 21.73 106.92 32.58 q 18.84 5.75 37.67 11.54 c 2 0.61 4.61 0.56 4.58 3.64 c 0 2.44 -1.92 3.19 -3.81 4.05 c -26.7 12.06 -53.4 24.1 -80 36.32 c -4.39 2 -7.87 1.81 -12 -0.79 q -65.34 -40.61 -130.87 -80.87 c -0.43 -0.26 -0.87 -0.5 -1.3 -0.75 c -2.62 -1.51 -4.46 -3.53 -4.18 -6.79 c 0.29 -3.49 3.3 -4.18 5.74 -4.64 C 1071 270.78 1080.43 268.36 1090.18 268.78 Z" stroke-linecap="round" />
</g>
<g transform="matrix(1 0 0 1 549.19 384.02)"  >
<path style="stroke: none; stroke-width: 1; stroke-dasharray: none; stroke-linecap: butt; stroke-dashoffset: 0; stroke-linejoin: miter; stroke-miterlimit: 4; fill: rgb(233,53,42); fill-rule: nonzero; opacity: 1;"  transform=" translate(-779.59, -582.68)" d="M 779 619 c -20.08 -0.09 -36 -16.55 -35.82 -37.06 c 0.16 -19.34 16.91 -35.67 36.48 -35.58 A 36.55 36.55 0 0 1 816 583 C 816 603.05 799.43 619.08 779 619 Z" stroke-linecap="round" />
</g>
<g transform="matrix(1 0 0 1 104.04 442.3)"  >
<path style="stroke: none; stroke-width: 1; stroke-dasharray: none; stroke-linecap: butt; stroke-dashoffset: 0; stroke-linejoin: miter; stroke-miterlimit: 4; fill: rgb(236,32,36); fill-rule: nonzero; opacity: 1;"  transform=" translate(-334.44, -640.96)" d="M 333.71 677.22 c -20.48 -0.3 -36 -16.72 -35.63 -37.68 c 0.34 -19.77 16.78 -35.1 37.38 -34.85 c 19.43 0.23 35.67 17 35.35 36.58 A 36.59 36.59 0 0 1 333.71 677.22 Z" stroke-linecap="round" />
</g>
<g transform="matrix(1 0 0 1 181.97 431.86)"  >
<path style="stroke: none; stroke-width: 1; stroke-dasharray: none; stroke-linecap: butt; stroke-dashoffset: 0; stroke-linejoin: miter; stroke-miterlimit: 4; fill: rgb(0,0,0); fill-rule: nonzero; opacity: 1;"  transform=" translate(-412.37, -630.52)" d="M 422.07 615.51 c -0.73 -5.92 -1.28 -11.56 -2.18 -17.14 c -0.56 -3.53 0.91 -4.66 4.15 -5.16 c 13.33 -2 13.36 -2.11 15.18 11.22 c 2.41 17.64 4.63 35.31 7.18 52.93 c 0.49 3.34 -0.42 4.68 -3.55 5 c -1.66 0.15 -3.31 0.38 -5 0.57 c -9.36 1.07 -9.37 1.07 -10.61 -8.33 c -0.7 -5.28 -1.45 -10.56 -2 -15.85 c -0.25 -2.37 -1.25 -3.18 -3.58 -2.85 c -5.6 0.79 -11.21 1.55 -16.83 2.13 c -2.76 0.28 -3.15 1.62 -2.78 4 c 1.06 6.9 1.89 13.85 2.93 20.76 c 0.5 3.33 -0.57 4.76 -4.08 5.21 c -13.38 1.71 -13.49 1.84 -15.38 -11.44 c -2.51 -17.63 -4.79 -35.28 -7.2 -52.92 c -0.39 -2.81 0.33 -4.42 3.51 -4.66 c 3.47 -0.26 6.93 -0.88 10.37 -1.45 c 2.92 -0.47 4.26 0.53 4.56 3.61 c 0.56 5.63 1.78 11.2 2.15 16.83 c 0.23 3.63 1.66 4 4.72 3.42 c 5.07 -0.92 10.19 -1.65 15.33 -2.08 C 422 619.06 422.85 617.93 422.07 615.51 Z" stroke-linecap="round" />
</g>
<g transform="matrix(1 0 0 1 257.6 425.64)"  >
<path style="stroke: none; stroke-width: 1; stroke-dasharray: none; stroke-linecap: butt; stroke-dashoffset: 0; stroke-linejoin: miter; stroke-miterlimit: 4; fill: rgb(0,0,0); fill-rule: nonzero; opacity: 1;"  transform=" translate(-488, -624.3)" d="M 499.12 600.47 c 1.39 -3.6 0.19 -7.69 5.43 -8.37 c 9.53 -1.23 9.57 -1.55 10.87 8.07 c 2.07 15.32 4 30.67 6.06 46 c 0.51 3.69 -1 5.69 -4.4 5.61 c -4.33 -0.09 -9.6 4 -12.8 -2.58 c -0.48 -1 -1.75 0.22 -2.44 0.89 c -8.89 8.75 -19.17 8.49 -29.55 3.79 c -11.29 -5.11 -17.15 -14.52 -17.82 -26.79 c -1.06 -19.4 16 -35.48 33.74 -32.27 C 492.29 595.54 495.55 597.7 499.12 600.47 Z" stroke-linecap="round" />
</g>
<g transform="matrix(1 0 0 1 386.03 403.57)"  >
<path style="stroke: none; stroke-width: 1; stroke-dasharray: none; stroke-linecap: butt; stroke-dashoffset: 0; stroke-linejoin: miter; stroke-miterlimit: 4; fill: rgb(0,0,0); fill-rule: nonzero; opacity: 1;"  transform=" translate(-616.43, -602.23)" d="M 605 598.82 c 3.78 -5.52 7.68 -10.81 11.13 -16.38 c 2.3 -3.73 5.08 -5.81 9.6 -5.86 c 3.13 0 6.25 -0.85 9.39 -1.21 c 1.29 -0.14 2.82 -0.3 3.49 1.23 c 0.54 1.25 -0.38 2.22 -1.05 3.16 c -4.57 6.34 -9 12.78 -13.78 19 c -2 2.58 -1.64 4 0.58 6.17 c 8.18 7.82 16.18 15.83 24.2 23.81 c 1.22 1.22 3.29 2.26 2.42 4.46 c -0.74 1.88 -2.84 1.28 -4.35 1.79 c -10.74 3.58 -18.84 0.35 -24.93 -9.06 c -1.69 -2.61 -4.14 -4.76 -6.37 -7 c -1.21 -1.22 -2.55 -4 -3.93 -3 c -2.1 1.44 -4.45 3.61 -4 6.89 c 0.51 4 1.1 7.91 1.62 11.86 c 0.48 3.57 -0.67 5.51 -4.68 6 c -13.27 1.51 -12.68 3.84 -14.52 -10.85 q -3.76 -30 -8 -59.83 c -0.58 -4.09 0.55 -5.78 4.65 -6.2 c 14.22 -1.45 12.46 -4 14.35 10.78 c 1 7.74 2.09 15.48 3.17 23.21 C 604 597.93 604.35 598.14 605 598.82 Z" stroke-linecap="round" />
</g>
<g transform="matrix(1 0 0 1 446.6 401.65)"  >
<path style="stroke: none; stroke-width: 1; stroke-dasharray: none; stroke-linecap: butt; stroke-dashoffset: 0; stroke-linejoin: miter; stroke-miterlimit: 4; fill: rgb(0,0,0); fill-rule: nonzero; opacity: 1;"  transform=" translate(-676.99, -600.31)" d="M 676.45 568.82 c 5.49 -0.48 10.24 1.71 14.77 4.74 c 2.91 2 3.91 4 0.87 6.66 a 18.29 18.29 0 0 0 -3 3.34 c -2 2.9 -4 4.14 -7.27 1.4 c -2.09 -1.74 -5 -1.88 -7.65 -1.16 c -1.75 0.48 -3.87 0.9 -3.58 3.36 c 0.25 2.18 2.08 2.71 4 3 a 111.42 111.42 0 0 1 11.25 2.08 c 10.15 2.75 15 8.65 15.41 18.25 c 0.36 8.43 -5 15.84 -14.08 19 C 677.46 633 667.9 633 659 627 c -2 -1.35 -4.85 -3 -3.78 -5.81 a 17.41 17.41 0 0 1 7.33 -9.09 c 1.39 -0.79 2.7 0.87 4 1.62 c 4.21 2.49 8.58 3.51 13.33 1.62 c 1.65 -0.66 3 -1.64 3.06 -3.53 c 0 -2.17 -1.46 -3.28 -3.4 -3.71 c -3.24 -0.71 -6.53 -1.2 -9.76 -1.94 c -11.66 -2.68 -17.77 -10.1 -17 -20.5 c 0.67 -8.8 9.19 -16 20 -16.83 C 674 568.74 675.16 568.82 676.45 568.82 Z" stroke-linecap="round" />
</g>
<g transform="matrix(1 0 0 1 323.76 417.69)"  >
<path style="stroke: none; stroke-width: 1; stroke-dasharray: none; stroke-linecap: butt; stroke-dashoffset: 0; stroke-linejoin: miter; stroke-miterlimit: 4; fill: rgb(0,0,0); fill-rule: nonzero; opacity: 1;"  transform=" translate(-554.16, -616.35)" d="M 559.93 585 c 0.73 0.12 2.71 0.36 4.65 0.78 c 11 2.34 12 4.27 7.63 14.25 c -1.72 4 -3.86 4.57 -7.78 3 c -8.38 -3.37 -15.55 -0.52 -18.68 7 c -2.59 6.18 -0.78 14.13 4.15 18.24 s 11.67 4.26 17.43 -0.47 c 4 -3.32 6.18 -2 9 1.26 c 6.85 7.9 6.78 8.8 -2.3 14.15 a 30.66 30.66 0 0 1 -35.83 -2.79 c -9.89 -8.25 -13.65 -22.5 -9.22 -34.93 C 533.31 593.21 545.44 584.86 559.93 585 Z" stroke-linecap="round" />
</g>
<g transform="matrix(1 0 0 1 492.24 391.51)"  >
<path style="stroke: none; stroke-width: 1; stroke-dasharray: none; stroke-linecap: butt; stroke-dashoffset: 0; stroke-linejoin: miter; stroke-miterlimit: 4; fill: rgb(233,53,42); fill-rule: nonzero; opacity: 1;"  transform=" translate(-722.64, -590.17)" d="M 735.93 620.86 c 0.36 1.9 -0.41 3 -2.52 3.3 q -6.2 0.8 -12.36 1.74 c -3.36 0.51 -3.38 -2.11 -3.67 -4.12 c -1.18 -8.39 -2.19 -16.82 -3.28 -25.23 c -1.52 -11.71 -2.92 -23.43 -4.67 -35.11 c -0.57 -3.79 0.25 -5.25 4.23 -5.91 c 13.58 -2.25 13.52 -2.41 15.21 10.78 q 3.43 26.72 6.94 53.43 C 735.85 620.07 735.88 620.4 735.93 620.86 Z" stroke-linecap="round" />
</g>
<g transform="matrix(1 0 0 1 549.13 383.92)"  >
<path style="stroke: none; stroke-width: 1; stroke-dasharray: none; stroke-linecap: butt; stroke-dashoffset: 0; stroke-linejoin: miter; stroke-miterlimit: 4; fill: rgb(189,189,189); fill-rule: nonzero; opacity: 1;"  transform=" translate(-779.52, -582.57)" d="M 797.35 582.93 c 0 10.93 -7.17 18.32 -17.87 18.34 c -10.21 0 -17.65 -7.8 -17.78 -18.7 S 769 564 779.38 563.88 S 797.32 571.9 797.35 582.93 Z" stroke-linecap="round" />
</g>
<g transform="matrix(1 0 0 1 103.77 442.11)"  >
<path style="stroke: none; stroke-width: 1; stroke-dasharray: none; stroke-linecap: butt; stroke-dashoffset: 0; stroke-linejoin: miter; stroke-miterlimit: 4; fill: rgb(189,189,189); fill-rule: nonzero; opacity: 1;"  transform=" translate(-334.17, -640.77)" d="M 352.23 641.07 c 0 10.69 -7.56 18.54 -17.94 18.63 c -9.83 0.09 -18.11 -8.71 -18.18 -19.34 a 18.19 18.19 0 0 1 18.16 -18.53 C 344.46 621.8 352.24 630.13 352.23 641.07 Z" stroke-linecap="round" />
</g>
<g transform="matrix(1 0 0 1 255.53 427.01)"  >
<path style="stroke: none; stroke-width: 1; stroke-dasharray: none; stroke-linecap: butt; stroke-dashoffset: 0; stroke-linejoin: miter; stroke-miterlimit: 4; fill: rgb(189,189,189); fill-rule: nonzero; opacity: 1;"  transform=" translate(-485.93, -625.67)" d="M 471.82 625 c 0.06 -8.68 5.51 -14.17 13.94 -14 s 14.39 6.54 14.28 15.23 c -0.11 8.11 -6.49 14.18 -14.87 14.11 C 477.06 640.24 471.76 634.16 471.82 625 Z" stroke-linecap="round" />
</g>
</svg>