<?xml version="1.0" encoding="UTF-8" standalone="no" ?>
<!DOCTYPE svg PUBLIC "-//W3C//DTD SVG 1.1//EN" "http://www.w3.org/Graphics/SVG/1.1/DTD/svg11.dtd">
<svg xmlns="http://www.w3.org/2000/svg" xmlns:xlink="http://www.w3.org/1999/xlink" version="1.1" width="523" height="82" viewBox="0 0 523 82" xml:space="preserve">
<desc>Created with Fabric.js 3.6.3</desc>
<defs>
</defs>
<g transform="matrix(0.99 0.13 -0.13 0.99 486.33 45.33)"  >
<path style="stroke: none; stroke-width: 1; stroke-dasharray: none; stroke-linecap: butt; stroke-dashoffset: 0; stroke-linejoin: miter; stroke-miterlimit: 4; fill: rgb(233,53,42); fill-rule: nonzero; opacity: 1;"  transform=" translate(-779.59, -582.68)" d="M 779 619 c -20.08 -0.09 -36 -16.55 -35.82 -37.06 c 0.16 -19.34 16.91 -35.67 36.48 -35.58 A 36.55 36.55 0 0 1 816 583 C 816 603.05 799.43 619.08 779 619 Z" stroke-linecap="round" />
</g>
<g transform="matrix(0.99 0.13 -0.13 0.99 37.37 44.8)"  >
<path style="stroke: none; stroke-width: 1; stroke-dasharray: none; stroke-linecap: butt; stroke-dashoffset: 0; stroke-linejoin: miter; stroke-miterlimit: 4; fill: rgb(236,32,36); fill-rule: nonzero; opacity: 1;"  transform=" translate(-334.44, -640.96)" d="M 333.71 677.22 c -20.48 -0.3 -36 -16.72 -35.63 -37.68 c 0.34 -19.77 16.78 -35.1 37.38 -34.85 c 19.43 0.23 35.67 17 35.35 36.58 A 36.59 36.59 0 0 1 333.71 677.22 Z" stroke-linecap="round" />
</g>
<g transform="matrix(0.99 0.13 -0.13 0.99 116 44.67)"  >
<path style="stroke: none; stroke-width: 1; stroke-dasharray: none; stroke-linecap: butt; stroke-dashoffset: 0; stroke-linejoin: miter; stroke-miterlimit: 4; fill: rgb(0,0,0); fill-rule: nonzero; opacity: 1;"  transform=" translate(-412.37, -630.52)" d="M 422.07 615.51 c -0.73 -5.92 -1.28 -11.56 -2.18 -17.14 c -0.56 -3.53 0.91 -4.66 4.15 -5.16 c 13.33 -2 13.36 -2.11 15.18 11.22 c 2.41 17.64 4.63 35.31 7.18 52.93 c 0.49 3.34 -0.42 4.68 -3.55 5 c -1.66 0.15 -3.31 0.38 -5 0.57 c -9.36 1.07 -9.37 1.07 -10.61 -8.33 c -0.7 -5.28 -1.45 -10.56 -2 -15.85 c -0.25 -2.37 -1.25 -3.18 -3.58 -2.85 c -5.6 0.79 -11.21 1.55 -16.83 2.13 c -2.76 0.28 -3.15 1.62 -2.78 4 c 1.06 6.9 1.89 13.85 2.93 20.76 c 0.5 3.33 -0.57 4.76 -4.08 5.21 c -13.38 1.71 -13.49 1.84 -15.38 -11.44 c -2.51 -17.63 -4.79 -35.28 -7.2 -52.92 c -0.39 -2.81 0.33 -4.42 3.51 -4.66 c 3.47 -0.26 6.93 -0.88 10.37 -1.45 c 2.92 -0.47 4.26 0.53 4.56 3.61 c 0.56 5.63 1.78 11.2 2.15 16.83 c 0.23 3.63 1.66 4 4.72 3.42 c 5.07 -0.92 10.19 -1.65 15.33 -2.08 C 422 619.06 422.85 617.93 422.07 615.51 Z" stroke-linecap="round" />
</g>
<g transform="matrix(0.99 0.13 -0.13 0.99 191.79 48.4)"  >
<path style="stroke: none; stroke-width: 1; stroke-dasharray: none; stroke-linecap: butt; stroke-dashoffset: 0; stroke-linejoin: miter; stroke-miterlimit: 4; fill: rgb(0,0,0); fill-rule: nonzero; opacity: 1;"  transform=" translate(-488, -624.3)" d="M 499.12 600.47 c 1.39 -3.6 0.19 -7.69 5.43 -8.37 c 9.53 -1.23 9.57 -1.55 10.87 8.07 c 2.07 15.32 4 30.67 6.06 46 c 0.51 3.69 -1 5.69 -4.4 5.61 c -4.33 -0.09 -9.6 4 -12.8 -2.58 c -0.48 -1 -1.75 0.22 -2.44 0.89 c -8.89 8.75 -19.17 8.49 -29.55 3.79 c -11.29 -5.11 -17.15 -14.52 -17.82 -26.79 c -1.06 -19.4 16 -35.48 33.74 -32.27 C 492.29 595.54 495.55 597.7 499.12 600.47 Z" stroke-linecap="round" />
</g>
<g transform="matrix(0.99 0.13 -0.13 0.99 322.01 43.34)"  >
<path style="stroke: none; stroke-width: 1; stroke-dasharray: none; stroke-linecap: butt; stroke-dashoffset: 0; stroke-linejoin: miter; stroke-miterlimit: 4; fill: rgb(0,0,0); fill-rule: nonzero; opacity: 1;"  transform=" translate(-616.43, -602.23)" d="M 605 598.82 c 3.78 -5.52 7.68 -10.81 11.13 -16.38 c 2.3 -3.73 5.08 -5.81 9.6 -5.86 c 3.13 0 6.25 -0.85 9.39 -1.21 c 1.29 -0.14 2.82 -0.3 3.49 1.23 c 0.54 1.25 -0.38 2.22 -1.05 3.16 c -4.57 6.34 -9 12.78 -13.78 19 c -2 2.58 -1.64 4 0.58 6.17 c 8.18 7.82 16.18 15.83 24.2 23.81 c 1.22 1.22 3.29 2.26 2.42 4.46 c -0.74 1.88 -2.84 1.28 -4.35 1.79 c -10.74 3.58 -18.84 0.35 -24.93 -9.06 c -1.69 -2.61 -4.14 -4.76 -6.37 -7 c -1.21 -1.22 -2.55 -4 -3.93 -3 c -2.1 1.44 -4.45 3.61 -4 6.89 c 0.51 4 1.1 7.91 1.62 11.86 c 0.48 3.57 -0.67 5.51 -4.68 6 c -13.27 1.51 -12.68 3.84 -14.52 -10.85 q -3.76 -30 -8 -59.83 c -0.58 -4.09 0.55 -5.78 4.65 -6.2 c 14.22 -1.45 12.46 -4 14.35 10.78 c 1 7.74 2.09 15.48 3.17 23.21 C 604 597.93 604.35 598.14 605 598.82 Z" stroke-linecap="round" />
</g>
<g transform="matrix(0.99 0.13 -0.13 0.99 382.3 49.37)"  >
<path style="stroke: none; stroke-width: 1; stroke-dasharray: none; stroke-linecap: butt; stroke-dashoffset: 0; stroke-linejoin: miter; stroke-miterlimit: 4; fill: rgb(0,0,0); fill-rule: nonzero; opacity: 1;"  transform=" translate(-676.99, -600.31)" d="M 676.45 568.82 c 5.49 -0.48 10.24 1.71 14.77 4.74 c 2.91 2 3.91 4 0.87 6.66 a 18.29 18.29 0 0 0 -3 3.34 c -2 2.9 -4 4.14 -7.27 1.4 c -2.09 -1.74 -5 -1.88 -7.65 -1.16 c -1.75 0.48 -3.87 0.9 -3.58 3.36 c 0.25 2.18 2.08 2.71 4 3 a 111.42 111.42 0 0 1 11.25 2.08 c 10.15 2.75 15 8.65 15.41 18.25 c 0.36 8.43 -5 15.84 -14.08 19 C 677.46 633 667.9 633 659 627 c -2 -1.35 -4.85 -3 -3.78 -5.81 a 17.41 17.41 0 0 1 7.33 -9.09 c 1.39 -0.79 2.7 0.87 4 1.62 c 4.21 2.49 8.58 3.51 13.33 1.62 c 1.65 -0.66 3 -1.64 3.06 -3.53 c 0 -2.17 -1.46 -3.28 -3.4 -3.71 c -3.24 -0.71 -6.53 -1.2 -9.76 -1.94 c -11.66 -2.68 -17.77 -10.1 -17 -20.5 c 0.67 -8.8 9.19 -16 20 -16.83 C 674 568.74 675.16 568.82 676.45 568.82 Z" stroke-linecap="round" />
</g>
<g transform="matrix(0.99 0.13 -0.13 0.99 258.43 49.19)"  >
<path style="stroke: none; stroke-width: 1; stroke-dasharray: none; stroke-linecap: butt; stroke-dashoffset: 0; stroke-linejoin: miter; stroke-miterlimit: 4; fill: rgb(0,0,0); fill-rule: nonzero; opacity: 1;"  transform=" translate(-554.16, -616.35)" d="M 559.93 585 c 0.73 0.12 2.71 0.36 4.65 0.78 c 11 2.34 12 4.27 7.63 14.25 c -1.72 4 -3.86 4.57 -7.78 3 c -8.38 -3.37 -15.55 -0.52 -18.68 7 c -2.59 6.18 -0.78 14.13 4.15 18.24 s 11.67 4.26 17.43 -0.47 c 4 -3.32 6.18 -2 9 1.26 c 6.85 7.9 6.78 8.8 -2.3 14.15 a 30.66 30.66 0 0 1 -35.83 -2.79 c -9.89 -8.25 -13.65 -22.5 -9.22 -34.93 C 533.31 593.21 545.44 584.86 559.93 585 Z" stroke-linecap="round" />
</g>
<g transform="matrix(0.99 0.13 -0.13 0.99 428.89 45.29)"  >
<path style="stroke: none; stroke-width: 1; stroke-dasharray: none; stroke-linecap: butt; stroke-dashoffset: 0; stroke-linejoin: miter; stroke-miterlimit: 4; fill: rgb(233,53,42); fill-rule: nonzero; opacity: 1;"  transform=" translate(-722.64, -590.17)" d="M 735.93 620.86 c 0.36 1.9 -0.41 3 -2.52 3.3 q -6.2 0.8 -12.36 1.74 c -3.36 0.51 -3.38 -2.11 -3.67 -4.12 c -1.18 -8.39 -2.19 -16.82 -3.28 -25.23 c -1.52 -11.71 -2.92 -23.43 -4.67 -35.11 c -0.57 -3.79 0.25 -5.25 4.23 -5.91 c 13.58 -2.25 13.52 -2.41 15.21 10.78 q 3.43 26.72 6.94 53.43 C 735.85 620.07 735.88 620.4 735.93 620.86 Z" stroke-linecap="round" />
</g>
<g transform="matrix(0.99 0.13 -0.13 0.99 486.27 45.22)"  >
<path style="stroke: none; stroke-width: 1; stroke-dasharray: none; stroke-linecap: butt; stroke-dashoffset: 0; stroke-linejoin: miter; stroke-miterlimit: 4; fill: rgb(255,255,255); fill-rule: nonzero; opacity: 1;"  transform=" translate(-779.52, -582.57)" d="M 797.35 582.93 c 0 10.93 -7.17 18.32 -17.87 18.34 c -10.21 0 -17.65 -7.8 -17.78 -18.7 S 769 564 779.38 563.88 S 797.32 571.9 797.35 582.93 Z" stroke-linecap="round" />
</g>
<g transform="matrix(0.99 0.13 -0.13 0.99 37.13 44.58)"  >
<path style="stroke: none; stroke-width: 1; stroke-dasharray: none; stroke-linecap: butt; stroke-dashoffset: 0; stroke-linejoin: miter; stroke-miterlimit: 4; fill: rgb(255,255,255); fill-rule: nonzero; opacity: 1;"  transform=" translate(-334.17, -640.77)" d="M 352.23 641.07 c 0 10.69 -7.56 18.54 -17.94 18.63 c -9.83 0.09 -18.11 -8.71 -18.18 -19.34 a 18.19 18.19 0 0 1 18.16 -18.53 C 344.46 621.8 352.24 630.13 352.23 641.07 Z" stroke-linecap="round" />
</g>
<g transform="matrix(0.99 0.13 -0.13 0.99 189.57 49.49)"  >
<path style="stroke: none; stroke-width: 1; stroke-dasharray: none; stroke-linecap: butt; stroke-dashoffset: 0; stroke-linejoin: miter; stroke-miterlimit: 4; fill: rgb(255,255,255); fill-rule: nonzero; opacity: 1;"  transform=" translate(-485.93, -625.67)" d="M 471.82 625 c 0.06 -8.68 5.51 -14.17 13.94 -14 s 14.39 6.54 14.28 15.23 c -0.11 8.11 -6.49 14.18 -14.87 14.11 C 477.06 640.24 471.76 634.16 471.82 625 Z" stroke-linecap="round" />
</g>
</svg>