<?xml version="1.0" standalone="no"?>
<!DOCTYPE svg PUBLIC "-//W3C//DTD SVG 20010904//EN"
 "http://www.w3.org/TR/2001/REC-SVG-20010904/DTD/svg10.dtd">
<svg version="1.0" xmlns="http://www.w3.org/2000/svg"
 width="916.000000pt" height="600.000000pt" viewBox="0 0 916.000000 600.000000"
 preserveAspectRatio="xMidYMid meet">

<g transform="translate(0.000000,0.000000) scale(0.0100000,-0.0100000)"
fill="currentColor" stroke="none">
<path d="M7625 5993 c-93 -11 -229 -37 -290 -54 -202 -58 -321 -108 -1465
-617 -319 -142 -622 -275 -722 -316 l-85 -35 -139 40 c-77 22 -220 65 -319 95
-99 30 -223 68 -275 83 -52 16 -156 47 -230 70 -74 23 -308 93 -520 157 -212
63 -421 126 -465 139 -251 77 -309 87 -514 93 -230 5 -307 -5 -443 -58 -105
-40 -255 -120 -329 -174 -111 -81 -116 -230 -12 -346 62 -69 185 -149 838
-545 381 -231 565 -351 565 -369 0 -14 -21 -24 -400 -193 -129 -58 -253 -113
-275 -123 -331 -150 -804 -350 -827 -350 -42 0 -157 78 -559 377 -236 176
-386 278 -456 310 -52 24 -72 28 -194 31 -103 3 -150 0 -199 -12 -120 -31
-221 -109 -270 -210 -56 -112 -57 -105 78 -426 66 -157 131 -310 145 -340 14
-31 47 -107 73 -170 25 -63 57 -137 69 -165 13 -27 55 -126 95 -220 40 -93 90
-204 112 -245 22 -41 55 -113 74 -160 45 -108 88 -175 136 -211 22 -15 48 -39
59 -53 11 -15 24 -24 29 -21 4 3 46 -13 92 -35 142 -66 189 -74 463 -74 254 1
398 12 584 45 511 92 1036 267 1937 647 144 61 294 122 333 136 71 26 107 25
97 -1 -8 -19 -103 -514 -176 -913 -33 -184 -67 -369 -75 -410 -17 -86 -104
-575 -135 -755 -11 -66 -22 -131 -25 -145 -39 -217 -32 -300 32 -392 55 -81
169 -100 311 -52 96 31 297 129 379 184 100 66 240 223 325 365 71 117 278
544 518 1065 32 69 114 247 183 395 329 711 508 1100 607 1315 59 129 120 260
134 291 l27 56 332 159 c817 390 1432 713 1808 950 241 151 362 252 435 361
104 157 81 266 -96 444 -210 212 -472 332 -819 375 -104 13 -472 18 -556 7z"/>
</g>
</svg>
